<svg width="600" height="120" xmlns="http://www.w3.org/2000/svg"><g class="layer"><path d="M570.172 19.743c-4.693-6.642-4.693-6.642-4.544-6.51.15.133-1.992 1.751-1.898 1.833.094.083 11.04 11.23 11.189 11.363" fill="#fff"/><path d="M572.518 23.58c8.18 12.162 8.18 12.162 8.274 11.855.095-.306-17.038.488-16.975.297.063-.192.478-24.111.573-24.418" fill="#fff"/><path fill="#fff" d="M564.438 34.484h14v59h-14zM43.204 8.042h516.233v88.443H43.204z"/><path fill="#fff" d="M558.438 10.484h6v83h-6z"/><path fill="#fff" d="M552.438 8.484h8v85h-8zM20.438 28.484h1v8h-1zM21.438 25.484h3v11h-3z"/><path d="M21.202 27.484c-3.758 9.085-3.758 9.085-3.805 8.86-.047-.225 8.04.14 8.01 0-.032-.14-.425-17.795-.472-18.02M14.438 42.484h31v48h-31zM28.438 18.484h15v18h-15z" fill="#fff"/><path fill="#fff" d="M24.438 18.484h4v18h-4zM16.438 36.484h12v18h-12z"/><path fill="none" stroke="red" stroke-width="2" d="M24.438 18.484l-14 34M10.438 52.484l-3 11M7.438 63.484l6 24M13.438 87.484l3 8M16.438 95.484v20M16.438 114.484l-4 4M12.438 118.484h14M26.438 118.484l6-8M34.438 100.484l-2 10M34.438 100.484l3-7M37.438 93.484h523M560.438 93.484l3 3M563.438 96.484l2 9M565.438 105.484l6 13M571.438 118.484h16M583.438 111.484l4 7M583.438 94.484v17M591.438 70.484l-8 24M589.438 52.484l2 18M582.438 37.484l7 15M575.438 20.484l7 17M563.438 9.484l12 11M556.438 7.484l7 2M41.438 7.484h515M41.438 7.484l-12 7M29.438 14.484l-5 4M45.438 26.484l-1 62M61.438 26.484v62M45.438 26.484h16M44.438 88.484h17"/><path fill="#fff" stroke="red" stroke-width="2" d="M28.438 35.484h13v19h-13z"/><path fill="none" stroke="red" stroke-width="2" d="M27.438 35.484l-6 17M21.438 52.484l2 2M23.438 54.484h5"/><path fill="#fff" stroke="red" stroke-width="2" d="M48.438 46.484h2v4h-2zM48.438 82.484h10v3h-10z"/><path fill="none" stroke="red" stroke-width="2" d="M16.438 37.484l10-12M26.438 25.484h536M562.438 25.484h11M573.438 25.484l16 25M583.438 96.484h12M595.438 96.484v8M583.438 104.484h12"/><path fill="#fff" stroke="red" stroke-width="2" d="M3.438 97.484h12v6h-12zM13.25 104.172v5.287c0 .957.043 1.84-.469 2.588-.444.649-.934 1.356-1.512 1.957-.627.653-1.351 1.023-2.05 1.324-.772.332-1.41.696-2.17.98-.76.282-1.73.239-2.554.26l-.589.535-.95.006-.862.094M585.875 104.734v3.15c0 .9.086 1.762.364 2.505.294.785.39 1.634.96 2.19.596.585 1.139 1.235 1.781 1.718.764.573 1.429.91 2.239 1.125.834.222 1.534.544 2.128 1.078.622.558 1.457.854 2.26 1.14.82.292 1.518.594 2.362.594.445 0-.296-.323-1.013-.76l-.755-.394"/><path fill="none" stroke="red" stroke-width="2" d="M91.438 47.484v36M127.438 47.484v36M91.438 47.484h36M91.438 50.484h36M91.438 53.484h36M91.438 56.484h36M91.438 59.484h36M91.438 62.484h36M91.438 65.484h36M91.438 80.484h36M91.438 68.484h36M91.438 71.484h36M91.438 74.484h36M91.438 77.484h36M91.438 83.484h36M163.438 47.484v36M127.438 47.484h36M127.438 50.484h36M127.438 53.484h36M127.438 56.484h36M127.438 59.484h36M127.438 62.484h36M127.438 65.484h36M127.438 80.484h36M127.438 68.484h36M127.438 71.484h36M127.438 74.484h36M127.438 77.484h36M127.438 83.484h36M199.438 47.484v36M163.438 47.484h36M163.438 50.484h36M163.438 53.484h36M163.438 56.484h36M163.438 59.484h36M163.438 62.484h36M163.438 65.484h36M163.438 80.484h36M163.438 68.484h36M163.438 71.484h36M163.438 74.484h36M163.438 77.484h36M163.438 83.484h36M91.438 28.484v12M127.438 28.484v12M91.438 28.484h36M91.438 31.484h36M91.438 34.484h36M91.438 37.484h36M91.438 40.484h36M163.438 28.484v12M127.438 28.484h36M127.438 31.484h36M127.438 34.484h36M127.438 37.484h36M127.438 40.484h36M199.438 28.484v12M163.438 28.484h36M163.438 31.484h36M163.438 34.484h36M163.438 37.484h36M163.438 40.484h36"/><circle cx="76.438" cy="106.484" fill="#fff" r="12" stroke="red" stroke-width="2"/><circle cx="125.438" cy="106.484" fill="#fff" r="12" stroke="red" stroke-width="2"/><circle cx="175.438" cy="106.484" fill="#fff" r="12" stroke="red" stroke-width="2"/><circle cx="423.438" cy="106.484" fill="#fff" r="12" stroke="red" stroke-width="2"/><circle cx="473.438" cy="106.484" fill="#fff" r="12" stroke="red" stroke-width="2"/><circle cx="522.438" cy="106.484" fill="#fff" r="12" stroke="red" stroke-width="2"/><path fill="none" stroke="red" stroke-width="2" d="M391.438 47.484v36M427.438 47.484v36M391.438 47.484h36M391.438 50.484h36M391.438 53.484h36M391.438 56.484h36M391.438 59.484h36M391.438 62.484h36M391.438 65.484h36M391.438 80.484h36M391.438 68.484h36M391.438 71.484h36M391.438 74.484h36M391.438 77.484h36M391.438 83.484h36M463.438 47.484v36M427.438 47.484h36M427.438 50.484h36M427.438 53.484h36M427.438 56.484h36M427.438 59.484h36M427.438 62.484h36M427.438 65.484h36M427.438 80.484h36M427.438 68.484h36M427.438 71.484h36M427.438 74.484h36M427.438 77.484h36M427.438 83.484h36M499.438 47.484v36M463.438 47.484h36M463.438 50.484h36M463.438 53.484h36M463.438 56.484h36M463.438 59.484h36M463.438 62.484h36M463.438 65.484h36M463.438 80.484h36M463.438 68.484h36M463.438 71.484h36M463.438 74.484h36M463.438 77.484h36M463.438 83.484h36M391.438 28.484v12M427.438 28.484v12M391.438 28.484h36M391.438 31.484h36M391.438 34.484h36M391.438 37.484h36M391.438 40.484h36M463.438 28.484v12M427.438 28.484h36M427.438 31.484h36M427.438 34.484h36M427.438 37.484h36M427.438 40.484h36M499.438 28.484v12M463.438 28.484h36M463.438 31.484h36M463.438 34.484h36M463.438 37.484h36M463.438 40.484h36"/><path fill="#fff" stroke="red" stroke-width="2" d="M227.438 3.484h11v3h-11zM392.438 3.484h14v3h-14zM509.438 2.484h5v5h-5z"/><path fill="none" stroke="red" stroke-width="2" d="M536.438 26.484l-1 62M552.438 26.484v62"/><path fill="#fff" stroke="red" stroke-width="2" d="M547.438 46.484h2v4h-2zM539.438 82.484h10v3h-10z"/><path fill="none" stroke="red" stroke-width="2" d="M535.438 26.484h16M534.438 88.484h17"/><path fill="#fff" stroke="red" stroke-width="2" d="M556.438 35.484h13v19h-13z"/><path fill="none" stroke="red" stroke-width="2" d="M570.438 35.484l6 17M568.438 54.484h6"/><path d="M574.405 54.259c1.09 0 1.87-.29 2.136-1.044v-.878" fill="#fff" stroke="red" stroke-width="2"/><path fill="#fff" d="M33.438 12.484h10v7h-10z"/><path d="M29.143 15.484c-4.697 3.029-4.697 3.029-4.756 2.954-.059-.076 10.05.046 10.012 0-.04-.047-.53-5.932-.59-6.007" fill="#fff"/><path d="M38.143 9.984c-4.697 2.524-4.697 2.524-4.756 2.461-.059-.062 10.05.04 10.012 0-.04-.039-.53-4.943-.59-5.005M15.908 40.984c-.47 1.514-.47 1.514-.476 1.477-.005-.038 1.006.023 1.002 0-.004-.023-.053-2.966-.06-3.003M11.205 53.48C7.447 63.575 7.447 63.575 7.4 63.324c-.047-.25 8.04.156 8.009 0-.031-.156-.424-19.772-.471-20.022M14.216 74.57c-3.9 12.733-3.9 12.733-3.95 12.418-.049-.316 8.346.197 8.313 0-.032-.197-.44-24.943-.489-25.259M16.438 90.484h10v28h-10z" fill="#fff"/><path d="M32.531 102.321c6.09-12.832 6.09-12.832 6.174-12.518.084.314-13.506.038-13.45.234.055.196 1.147 24.908 1.231 25.223" fill="#fff"/><path d="M32.026 105.32c5.603-12.833 5.603-12.833 5.681-12.518.079.314-12.467.02-12.415.216.052.196 1.092 24.927 1.171 25.241M16.064 114.382c-3.288 4.038-3.288 4.038-3.33 3.938-.04-.1 7.036.062 7.008 0-.027-.063-.37-7.909-.412-8.01" fill="#fff"/><path fill="#fff" d="M35.438 89.484h8v4h-8zM570.438 93.484h12v24h-12zM565.438 93.484h5v10h-5z"/><path fill="#fff" d="M578.438 40.484h4v53h-4zM582.438 51.484h6v27h-6zM583.438 96.484h12v8h-12z"/><path fill="#fff" stroke="red" stroke-width="2" d="M88.365 2.139h5v5h-5z"/></g></svg>