<?xml version="1.0" encoding="UTF-8"?>
<svg viewBox="190 120 660 340" version="1.1" xmlns="http://www.w3.org/2000/svg" p-id="3832" width="200" height="200">
  <path d="M230.321 63.93C246.714 25.955 286.732-0.647 328.269 0.054c126.648 0 253.297-0.176 379.945 0.116C764.858 0.053 812.459 51.272 812.985 107.041c-161.358 0.292-322.659 0.117-483.959 0.117-0.291 161.067 0.175 322.134-0.233 483.259-54.545-1.167-105.239-45.91-107.222-101.447-1.225-120.29 0-240.696-0.584-361.044-0.175-21.585 0-44.044 9.334-63.995z" fill="#009F3B" p-id="3833"></path>
  <path d="M382.171 160.71c143.332-0.466 286.665-0.174 429.939-0.116-0.175 107.69 0.175 215.378-0.117 323.067 0.642 57.112-51.102 106.873-107.922 105.764 1.167-107.105 0.292-214.211 0.467-321.317-71.58 0.117-143.1 0.059-214.62 0.059 0.233 106.93-0.525 213.86 0.35 320.791-35.877 0.934-71.87 0.292-107.806 0.409-0.291-142.866 0.292-285.732-0.291-428.656z" fill="#28B532" p-id="3834"></path>
  <path d="M543.588 321.311c35.818 0.058 71.578-0.058 107.339 0.058 0.058 89.313 0 178.626 0.058 267.94-35.819 0.116-71.637 0.233-107.456-0.059 0.117-89.313-0.058-178.626 0.059-267.939z" fill="#28B532" p-id="3835"></path>
  <path d="M254.589 732c0.058-2.684 0.292-8.11 0.408-10.851 38.852 0.175 116.557 0.116 116.557 0.116l-0.059 10.968s-84.413 0-116.906-0.234z" fill="#FFFFFF" p-id="3838"></path>
  <path d="M939.633 740.458c4.084 0.058 12.193 0.233 16.276 0.292-0.175 9.975 0 20.01-0.175 30.043h-41.36c0 4.492-0.117 16.177-0.117 16.177s-16.51 0.624-24.735-0.024a516.685 516.685 0 0 1 0-19.017c4.842 0 14.41 0.116 19.193 0.116l0.233-13.884c9.16 0 18.26 0.059 27.477 0.059 0.758-3.442 2.392-10.326 3.208-13.768zM88.622 765.251c23.976 0 47.953 0.058 71.929 0 0.116 25.785 0.058 51.511 0 77.237-23.976 0.059-47.953 0.059-71.929 0-0.058-25.784-0.058-51.51 0-77.237z m861.57 28.002c-11.259 22.634-33.426 72.716-33.426 72.716s-7.06-16.889-9.976-23.306c-4.317-0.058-13.009-0.116-17.326-0.175 0-11.025-0.117-22.109 0-33.135 4.842 0 14.584 0 19.426 0.059-0.058-4.784 0.006-16.16 0.006-16.16h41.296z m-671.452 49.119c12.193-4.959 24.502-9.742 36.81-14.468-0.058 3.676-0.116 11.026-0.116 14.701-12.25-0.058-24.443-0.117-36.694-0.233z" fill="#FFFFFF" p-id="3840"></path>
  <path d="M623.567 975.787c2.584-9.789 7.35-14.8 17.91-14.928 9.555-0.117 16.193 4.935 18.433 14.811-12.134 0.467-24.268 0.35-36.343 0.117z m203.244-5.717c9.8-11.084 29.985-4.783 31.793 9.8 3.675 13.301-8.867 27.594-22.634 24.444-14.935-3.15-19.893-24.035-9.16-34.244z m82.056-183.59h5.35v6.96h-5.35z" fill="#FFFFFF" p-id="3842"></path>
</svg>